<svg width="15" height="15" viewBox="0 0 15 15" fill="none" xmlns="http://www.w3.org/2000/svg">
<path fill-rule="evenodd" clip-rule="evenodd" d="M0.569458 1.81689C0.569458 1.26461 1.01717 0.816895 1.56946 0.816895H5.56946C6.12174 0.816895 6.56946 1.26461 6.56946 1.81689V5.81689C6.56946 6.36917 6.12174 6.81689 5.56946 6.81689H1.56946C1.01717 6.81689 0.569458 6.36917 0.569458 5.81689V1.81689ZM2.56946 2.81689H4.56946V4.81689H2.56946V2.81689ZM0.569458 9.81689C0.569458 9.26461 1.01717 8.81689 1.56946 8.81689H5.56946C6.12174 8.81689 6.56946 9.26461 6.56946 9.81689V13.8169C6.56946 14.3692 6.12174 14.8169 5.56946 14.8169H1.56946C1.01717 14.8169 0.569458 14.3692 0.569458 13.8169V9.81689ZM2.56946 10.8169H4.56946V12.8169H2.56946V10.8169ZM9.56946 0.816895C9.01718 0.816895 8.56946 1.26461 8.56946 1.81689V5.81689C8.56946 6.36917 9.01718 6.81689 9.56946 6.81689H13.5695C14.1218 6.81689 14.5695 6.36917 14.5695 5.81689V1.81689C14.5695 1.26461 14.1218 0.816895 13.5695 0.816895H9.56946ZM12.5695 2.81689H10.5695V4.81689H12.5695V2.81689ZM8.56946 9.81689C8.56946 9.26461 9.01718 8.81689 9.56946 8.81689H13.5695C14.1218 8.81689 14.5695 9.26461 14.5695 9.81689V13.8169C14.5695 14.3692 14.1218 14.8169 13.5695 14.8169H9.56946C9.01718 14.8169 8.56946 14.3692 8.56946 13.8169V9.81689ZM10.5695 10.8169H12.5695V12.8169H10.5695V10.8169Z" fill="#1F1F1F"/>
</svg>
