<svg width="20" height="20" viewBox="0 0 20 20" fill="none" xmlns="http://www.w3.org/2000/svg">
<path d="M16.125 8.36665C15.5583 5.49165 13.0333 3.33331 10 3.33331C7.59167 3.33331 5.5 4.69998 4.45833 6.69998C1.95 6.96665 0 9.09165 0 11.6666C0 14.425 2.24167 16.6666 5 16.6666H15.8333C18.1333 16.6666 20 14.8 20 12.5C20 10.3 18.2917 8.51665 16.125 8.36665ZM15.8333 15H5C3.15833 15 1.66667 13.5083 1.66667 11.6666C1.66667 9.82498 3.15833 8.33331 5 8.33331H5.59167C6.14167 6.40831 7.9 4.99998 10 4.99998C12.5333 4.99998 14.5833 7.04998 14.5833 9.58331V9.99998H15.8333C17.2167 9.99998 18.3333 11.1166 18.3333 12.5C18.3333 13.8833 17.2167 15 15.8333 15Z" fill="#1F1F1F"/>
</svg>
