<svg width="20" height="20" viewBox="0 0 20 20" fill="none" xmlns="http://www.w3.org/2000/svg">
<path d="M15.8333 1.66666H4.16667C3.25 1.66666 2.5 2.41666 2.5 3.33332V16.6667C2.5 17.5833 3.25 18.3333 4.16667 18.3333H15.8333C16.75 18.3333 17.5 17.5833 17.5 16.6667V3.33332C17.5 2.41666 16.75 1.66666 15.8333 1.66666ZM15.8333 16.6667H4.16667V15.8333H15.8333V16.6667ZM15.8333 14.1667H4.16667V3.33332H15.8333V14.1667Z" fill="#1F1F1F"/>
<path d="M10.9346 5H9.06543C8.79284 5 8.55918 5.15577 8.40343 5.38941L5.95017 9.67292C5.83334 9.9065 5.83334 10.1792 5.95017 10.4128L6.88474 12.0482C7.00157 12.2819 7.27415 12.4377 7.54674 12.4377H12.5312C12.8038 12.4377 13.0374 12.2819 13.1932 12.0482L14.1278 10.4128C14.2446 10.1792 14.2446 9.9065 14.1278 9.67292L11.5966 5.38941C11.4798 5.15577 11.2072 5 10.9346 5ZM8.48134 10.0623L10.0389 7.41433L11.5577 10.0623H8.48134Z" fill="#1F1F1F"/>
</svg>
