<svg width="15" height="13" viewBox="0 0 15 13" fill="none" xmlns="http://www.w3.org/2000/svg">
<path fill-rule="evenodd" clip-rule="evenodd" d="M1.56946 0.816895C1.01717 0.816895 0.569458 1.26461 0.569458 1.81689C0.569458 2.36917 1.01717 2.81689 1.56946 2.81689H13.5695C14.1218 2.81689 14.5695 2.36917 14.5695 1.81689C14.5695 1.26461 14.1218 0.816895 13.5695 0.816895H1.56946ZM0.569458 6.81689C0.569458 6.26461 1.01717 5.81689 1.56946 5.81689H13.5695C14.1218 5.81689 14.5695 6.26461 14.5695 6.81689C14.5695 7.36917 14.1218 7.81689 13.5695 7.81689H1.56946C1.01717 7.81689 0.569458 7.36917 0.569458 6.81689ZM1.56946 10.8169C1.01717 10.8169 0.569458 11.2646 0.569458 11.8169C0.569458 12.3692 1.01717 12.8169 1.56946 12.8169H13.5695C14.1218 12.8169 14.5695 12.3692 14.5695 11.8169C14.5695 11.2646 14.1218 10.8169 13.5695 10.8169H1.56946Z" fill="#001D35"/>
</svg>
