<svg width="20" height="20" viewBox="0 0 20 20" fill="none" xmlns="http://www.w3.org/2000/svg">
<path d="M9.99169 1.66666C5.39169 1.66666 1.66669 5.39999 1.66669 9.99999C1.66669 14.6 5.39169 18.3333 9.99169 18.3333C14.6 18.3333 18.3334 14.6 18.3334 9.99999C18.3334 5.39999 14.6 1.66666 9.99169 1.66666ZM10 16.6667C6.31669 16.6667 3.33335 13.6833 3.33335 9.99999C3.33335 6.31666 6.31669 3.33332 10 3.33332C13.6834 3.33332 16.6667 6.31666 16.6667 9.99999C16.6667 13.6833 13.6834 16.6667 10 16.6667Z" fill="#1F1F1F"/>
<path d="M10.4167 5.83334H9.16669V10.8333L13.5417 13.4583L14.1667 12.4333L10.4167 10.2083V5.83334Z" fill="#1F1F1F"/>
</svg>
