<svg width="20" height="20" viewBox="0 0 20 20" fill="none" xmlns="http://www.w3.org/2000/svg">
<path d="M12.5 6.66668C12.5 5.48334 12.0833 4.39168 11.3916 3.53334C11.7416 3.41668 12.1083 3.33334 12.5 3.33334C14.3416 3.33334 15.8333 4.82501 15.8333 6.66668C15.8333 8.50834 14.3416 10 12.5 10C12.1416 10 11.8 9.92501 11.475 9.82501C11.45 9.81668 11.425 9.80834 11.3916 9.80001C12.1088 8.91317 12.5 7.80718 12.5 6.66668ZM13.8833 10.9417C15.025 11.7167 15.8333 12.7667 15.8333 14.1667V16.6667H19.1666V14.1667C19.1666 12.35 16.1833 11.275 13.8833 10.9417ZM7.49998 5.00001C6.58331 5.00001 5.83331 5.75001 5.83331 6.66668C5.83331 7.58334 6.58331 8.33334 7.49998 8.33334C8.41665 8.33334 9.16665 7.58334 9.16665 6.66668C9.16665 5.75001 8.41665 5.00001 7.49998 5.00001ZM7.49998 12.5C5.24998 12.5 2.66665 13.575 2.49998 14.175V15H12.5V14.1667C12.3333 13.575 9.74998 12.5 7.49998 12.5ZM7.49998 3.33334C9.34165 3.33334 10.8333 4.82501 10.8333 6.66668C10.8333 8.50834 9.34165 10 7.49998 10C5.65831 10 4.16665 8.50834 4.16665 6.66668C4.16665 4.82501 5.65831 3.33334 7.49998 3.33334ZM7.49998 10.8333C9.72498 10.8333 14.1666 11.95 14.1666 14.1667V16.6667H0.833313V14.1667C0.833313 11.95 5.27498 10.8333 7.49998 10.8333Z" fill="#1F1F1F"/>
</svg>
