<svg width="19" height="18" viewBox="0 0 19 18" fill="none" xmlns="http://www.w3.org/2000/svg">
<path d="M9.58999 9C8.76499 9 8.05874 8.70625 7.47124 8.11875C6.88374 7.53125 6.58999 6.825 6.58999 6C6.58999 5.175 6.88374 4.46875 7.47124 3.88125C8.05874 3.29375 8.76499 3 9.58999 3C10.415 3 11.1212 3.29375 11.7087 3.88125C12.2962 4.46875 12.59 5.175 12.59 6C12.59 6.825 12.2962 7.53125 11.7087 8.11875C11.1212 8.70625 10.415 9 9.58999 9ZM3.58999 15V12.9C3.58999 12.475 3.69936 12.0844 3.91811 11.7281C4.13686 11.3719 4.42749 11.1 4.78999 10.9125C5.56499 10.525 6.35249 10.2344 7.15249 10.0406C7.95249 9.84688 8.76499 9.75 9.58999 9.75C10.415 9.75 11.2275 9.84688 12.0275 10.0406C12.8275 10.2344 13.615 10.525 14.39 10.9125C14.7525 11.1 15.0431 11.3719 15.2619 11.7281C15.4806 12.0844 15.59 12.475 15.59 12.9V15H3.58999ZM5.08999 13.5H14.09V12.9C14.09 12.7625 14.0556 12.6375 13.9869 12.525C13.9181 12.4125 13.8275 12.325 13.715 12.2625C13.04 11.925 12.3587 11.6719 11.6712 11.5031C10.9837 11.3344 10.29 11.25 9.58999 11.25C8.88999 11.25 8.19624 11.3344 7.50874 11.5031C6.82124 11.6719 6.13999 11.925 5.46499 12.2625C5.35249 12.325 5.26186 12.4125 5.19311 12.525C5.12436 12.6375 5.08999 12.7625 5.08999 12.9V13.5ZM9.58999 7.5C10.0025 7.5 10.3556 7.35313 10.6494 7.05938C10.9431 6.76563 11.09 6.4125 11.09 6C11.09 5.5875 10.9431 5.23438 10.6494 4.94063C10.3556 4.64688 10.0025 4.5 9.58999 4.5C9.17749 4.5 8.82436 4.64688 8.53061 4.94063C8.23686 5.23438 8.08999 5.5875 8.08999 6C8.08999 6.4125 8.23686 6.76563 8.53061 7.05938C8.82436 7.35313 9.17749 7.5 9.58999 7.5Z" fill="#444746"/>
</svg>
